<?xml version="1.0" encoding="UTF-8" standalone="no"?>
<svg
   xmlns:osb="http://www.openswatchbook.org/uri/2009/osb"
   xmlns:dc="http://purl.org/dc/elements/1.1/"
   xmlns:cc="http://creativecommons.org/ns#"
   xmlns:rdf="http://www.w3.org/1999/02/22-rdf-syntax-ns#"
   xmlns:svg="http://www.w3.org/2000/svg"
   xmlns="http://www.w3.org/2000/svg"
   xmlns:sodipodi="http://sodipodi.sourceforge.net/DTD/sodipodi-0.dtd"
   xmlns:inkscape="http://www.inkscape.org/namespaces/inkscape"
   width="100mm"
   height="100mm"
   viewBox="0 0 100 100"
   version="1.1"
   id="svg8"
   inkscape:version="0.92.3 (2405546, 2018-03-11)"
   sodipodi:docname="Source.svg"
   inkscape:export-filename="E:\位图.png"
   inkscape:export-xdpi="650.23999"
   inkscape:export-ydpi="650.23999">
  <defs
     id="defs2">
    <linearGradient
       id="linearGradient6521"
       osb:paint="solid">
      <stop
         style="stop-color:#000000;stop-opacity:1;"
         offset="0"
         id="stop6519" />
    </linearGradient>
    <filter
       inkscape:label="Opacity"
       style="color-interpolation-filters:sRGB;"
       id="filter3902">
      <feColorMatrix
         values="1 0 0 0 0 0 1 0 0 0 0 0 1 0 0 0 0 0 1000 -0 "
         result="colormatrix"
         id="feColorMatrix3898" />
      <feComposite
         in2="colormatrix"
         operator="arithmetic"
         k2="0.497396"
         result="composite"
         id="feComposite3900" />
    </filter>
  </defs>
  <sodipodi:namedview
     id="base"
     pagecolor="#ffffff"
     bordercolor="#666666"
     borderopacity="1.0"
     inkscape:pageopacity="0.0"
     inkscape:pageshadow="2"
     inkscape:zoom="1"
     inkscape:cx="311.83573"
     inkscape:cy="284.93211"
     inkscape:document-units="mm"
     inkscape:current-layer="layer1"
     showgrid="true"
     inkscape:object-nodes="false"
     inkscape:snap-nodes="true"
     inkscape:snap-others="true"
     inkscape:window-width="1366"
     inkscape:window-height="705"
     inkscape:window-x="-8"
     inkscape:window-y="-8"
     inkscape:window-maximized="1"
     inkscape:snap-bbox="true"
     inkscape:bbox-nodes="true"
     guidecolor="#00ff00"
     guideopacity="0.62745098"
     showguides="true"
     inkscape:guide-bbox="true"
     inkscape:bbox-paths="true"
     inkscape:snap-object-midpoints="true"
     inkscape:snap-grids="true"
     inkscape:snap-to-guides="false">
    <sodipodi:guide
       position="0,0"
       orientation="0,377.95276"
       id="guide3713"
       inkscape:locked="false" />
    <sodipodi:guide
       position="99.999999,0"
       orientation="-377.95276,0"
       id="guide3715"
       inkscape:locked="false" />
    <sodipodi:guide
       position="99.999999,99.999999"
       orientation="0,-377.95276"
       id="guide3717"
       inkscape:locked="false" />
    <sodipodi:guide
       position="0,99.999999"
       orientation="377.95276,0"
       id="guide3719"
       inkscape:locked="false" />
    <inkscape:grid
       type="xygrid"
       id="grid3721"
       units="mm"
       visible="true"
       enabled="true"
       snapvisiblegridlinesonly="true"
       dotted="false"
       spacingx="0.99999999"
       spacingy="0.99999999" />
    <sodipodi:guide
       position="4.9999999,84.999999"
       orientation="0,1"
       id="guide3952"
       inkscape:locked="false" />
    <sodipodi:guide
       position="4.9999999,15"
       orientation="1,0"
       id="guide3954"
       inkscape:locked="false" />
    <sodipodi:guide
       position="94.999998,15"
       orientation="0,1"
       id="guide3956"
       inkscape:locked="false" />
    <sodipodi:guide
       position="94.999998,84.999999"
       orientation="1,0"
       inkscape:locked="false"
       id="guide3958" />
  </sodipodi:namedview>
  <metadata
     id="metadata5">
    <rdf:RDF>
      <cc:Work
         rdf:about="">
        <dc:format>image/svg+xml</dc:format>
        <dc:type
           rdf:resource="http://purl.org/dc/dcmitype/StillImage" />
        <dc:title />
      </cc:Work>
    </rdf:RDF>
  </metadata>
  <g
     inkscape:groupmode="layer"
     id="layer2"
     inkscape:label="Layer 1"
     style="display:inline" />
  <g
     inkscape:groupmode="layer"
     id="layer1"
     inkscape:label="Layer 2"
     style="display:inline">
    <path
       style="fill:#ffffff;stroke:#2196f3;stroke-width:5;stroke-linecap:butt;stroke-linejoin:miter;stroke-opacity:1;stroke-miterlimit:4;stroke-dasharray:none;fill-opacity:1"
       d="m 7.9999998,25 c 0,0 0,-6.999999 7.0000002,-6.999999 6.999999,0 69.999998,0 69.999998,0 0,0 6.999999,0 6.999999,6.999999 0,6.999999 0,50 0,50 0,0 0,6.999999 -6.999999,6.999999 -6.999999,0 -69.999998,0 -69.999998,0 0,0 -7.0000002,0 -7.0000002,-6.999999 0,-6.999999 0,-50 0,-50 z"
       id="path38"
       inkscape:connector-curvature="0" />
    <path
       style="fill:none;stroke:#2196f3;stroke-width:5;stroke-linecap:butt;stroke-linejoin:miter;stroke-opacity:1;stroke-miterlimit:4;stroke-dasharray:none"
       d="m 17.999999,31.000001 c 0,0 0,-3.000002 3.000001,-3.000002 3,0 33,0 33,0 0,0 2.999999,0 2.999999,3.000002 0,2.999999 0,29.999998 0,29.999998 0,0 0,3.000002 -2.999999,3.000002 -3.000002,0 -33,0 -33,0 0,0 -3.000001,0 -3.000001,-3.000002 0,-2.999999 0,-29.999998 0,-29.999998 z"
       id="path40"
       inkscape:connector-curvature="0" />
    <path
       style="fill:#ffffff;stroke:#2196f3;stroke-width:5;stroke-linecap:butt;stroke-linejoin:miter;stroke-opacity:1;stroke-miterlimit:4;stroke-dasharray:none;fill-opacity:1"
       d="m 42.999998,46 c 0,0 0,-2.999999 3.000002,-2.999999 2.999999,0 32.999997,0 32.999997,0 0,0 3.000002,0 3.000002,2.999999 0,2.999999 0,22.999999 0,22.999999 0,0 0,3.000002 -3.000002,3.000002 -2.999999,0 -32.999997,0 -32.999997,0 0,0 -3.000002,0 -3.000002,-3.000002 0,-3 0,-22.999999 0,-22.999999 z"
       id="path42"
       inkscape:connector-curvature="0" />
  </g>
</svg>
