<?xml version="1.0" encoding="UTF-8" standalone="no"?>
<svg
   xmlns:osb="http://www.openswatchbook.org/uri/2009/osb"
   xmlns:dc="http://purl.org/dc/elements/1.1/"
   xmlns:cc="http://creativecommons.org/ns#"
   xmlns:rdf="http://www.w3.org/1999/02/22-rdf-syntax-ns#"
   xmlns:svg="http://www.w3.org/2000/svg"
   xmlns="http://www.w3.org/2000/svg"
   xmlns:sodipodi="http://sodipodi.sourceforge.net/DTD/sodipodi-0.dtd"
   xmlns:inkscape="http://www.inkscape.org/namespaces/inkscape"
   width="100mm"
   height="100mm"
   viewBox="0 0 100 100"
   version="1.1"
   id="svg8"
   inkscape:version="0.92.3 (2405546, 2018-03-11)">
  <defs
     id="defs2">
    <linearGradient
       id="linearGradient6521"
       osb:paint="solid">
      <stop
         style="stop-color:#000000;stop-opacity:1;"
         offset="0"
         id="stop6519" />
    </linearGradient>
    <filter
       inkscape:label="Opacity"
       style="color-interpolation-filters:sRGB;"
       id="filter3902">
      <feColorMatrix
         values="1 0 0 0 0 0 1 0 0 0 0 0 1 0 0 0 0 0 1000 -0 "
         result="colormatrix"
         id="feColorMatrix3898" />
      <feComposite
         in2="colormatrix"
         operator="arithmetic"
         k2="0.497396"
         result="composite"
         id="feComposite3900" />
    </filter>
  </defs>
  <sodipodi:namedview
     id="base"
     pagecolor="#ffffff"
     bordercolor="#666666"
     borderopacity="1.0"
     inkscape:pageopacity="0.0"
     inkscape:pageshadow="2"
     inkscape:zoom="1"
     inkscape:cx="158.68292"
     inkscape:cy="198.36519"
     inkscape:document-units="mm"
     inkscape:current-layer="layer2"
     showgrid="true"
     inkscape:object-nodes="false"
     inkscape:snap-nodes="true"
     inkscape:snap-others="true"
     inkscape:window-width="1301"
     inkscape:window-height="745"
     inkscape:window-x="-8"
     inkscape:window-y="-8"
     inkscape:window-maximized="1"
     inkscape:snap-bbox="true"
     inkscape:bbox-nodes="true"
     guidecolor="#00ff00"
     guideopacity="0.62745098"
     showguides="true"
     inkscape:guide-bbox="true"
     inkscape:bbox-paths="true"
     inkscape:snap-object-midpoints="true"
     inkscape:snap-grids="true"
     inkscape:snap-to-guides="false">
    <sodipodi:guide
       position="0,0"
       orientation="0,377.95276"
       id="guide3713"
       inkscape:locked="false" />
    <sodipodi:guide
       position="99.999999,0"
       orientation="-377.95276,0"
       id="guide3715"
       inkscape:locked="false" />
    <sodipodi:guide
       position="99.999999,99.999999"
       orientation="0,-377.95276"
       id="guide3717"
       inkscape:locked="false" />
    <sodipodi:guide
       position="0,99.999999"
       orientation="377.95276,0"
       id="guide3719"
       inkscape:locked="false" />
    <inkscape:grid
       type="xygrid"
       id="grid3721"
       units="mm"
       visible="true"
       enabled="true"
       snapvisiblegridlinesonly="true"
       dotted="false"
       spacingx="0.99999999"
       spacingy="0.99999999" />
    <sodipodi:guide
       position="4.9999999,84.999999"
       orientation="0,1"
       id="guide3952"
       inkscape:locked="false" />
    <sodipodi:guide
       position="4.9999999,15"
       orientation="1,0"
       id="guide3954"
       inkscape:locked="false" />
    <sodipodi:guide
       position="94.999998,15"
       orientation="0,1"
       id="guide3956"
       inkscape:locked="false" />
    <sodipodi:guide
       position="94.999998,84.999999"
       orientation="1,0"
       inkscape:locked="false"
       id="guide3958" />
  </sodipodi:namedview>
  <metadata
     id="metadata5">
    <rdf:RDF>
      <cc:Work
         rdf:about="">
        <dc:format>image/svg+xml</dc:format>
        <dc:type
           rdf:resource="http://purl.org/dc/dcmitype/StillImage" />
        <dc:title />
      </cc:Work>
    </rdf:RDF>
  </metadata>
  <g
     inkscape:groupmode="layer"
     id="layer2"
     inkscape:label="Layer 1"
     style="display:inline">
    <path
       style="fill:none;stroke:#000000;stroke-width:0.26458332px;stroke-linecap:butt;stroke-linejoin:miter;stroke-opacity:1"
       d="m 5,25.000001 c 0,0 0,-10 10,-10 9.999999,0 69.999998,0 69.999998,0 0,0 9.999999,0 9.999999,10 0,10 0,49.999999 0,49.999999 0,0 0,10.000001 -9.999999,10.000001 -10.000001,0 -69.999998,0 -69.999998,0 0,0 -10,0 -10,-10.000001 0,-9.999999 0,-49.999999 0,-49.999999 z"
       id="path6595"
       inkscape:connector-curvature="0" />
    <path
       style="fill:none;stroke:#000000;stroke-width:0.26458332px;stroke-linecap:butt;stroke-linejoin:miter;stroke-opacity:1"
       d="m 9.9999997,25 c 0,0 0,-5 5.0000003,-5 4.999999,0 69.999998,0 69.999998,0 0,0 5.000001,0 5.000001,5 0,5 0,50 0,50 0,0 0,5 -5.000001,5 C 79.999998,80 15,80 15,80 c 0,0 -5.0000003,0 -5.0000003,-5 0,-5.000001 0,-50 0,-50 z"
       id="path204"
       inkscape:connector-curvature="0" />
    <path
       style="fill:none;stroke:#000000;stroke-width:0.26458332px;stroke-linecap:butt;stroke-linejoin:miter;stroke-opacity:1"
       d="M 16,31.000001 C 16,31.000001 16,26 21,26 c 5,0 33,0 33,0 0,0 4.999998,0 4.999998,5.000001 0,4.999998 0,29.999998 0,29.999998 0,0 0,5 -4.999998,5 -5.000001,0 -33,0 -33,0 0,0 -5,0 -5,-5 0,-5.000001 0,-29.999998 0,-29.999998 z"
       id="path208"
       inkscape:connector-curvature="0" />
    <path
       style="fill:none;stroke:#000000;stroke-width:0.26458332px;stroke-linecap:butt;stroke-linejoin:miter;stroke-opacity:1"
       d="m 78.999997,73.999999 c 0,0 5.000001,0 5.000001,-5 0,-4.999998 0,-22.999999 0,-22.999999 0,0 0,-5 -5.000001,-5 C 73.999999,41 46,41 46,41 c 0,0 -5,0 -5,5 0,5.000001 0,22.999999 0,22.999999 0,0 0,5 5,5 4.999998,0 32.999997,0 32.999997,0 z"
       id="path210"
       inkscape:connector-curvature="0" />
    <rect
       id="rect212"
       width="33"
       height="30.000002"
       x="21"
       y="31.000002"
       style="stroke-width:0.265;fill:none;stroke:#000000;stroke-opacity:1;stroke-miterlimit:4;stroke-dasharray:none" />
    <rect
       style="fill:none;stroke:#000000;stroke-width:0.26499999;stroke-miterlimit:4;stroke-dasharray:none;stroke-opacity:1"
       id="rect1019"
       width="33"
       height="22.999998"
       x="45.999996"
       y="46" />
  </g>
</svg>
